<?xml version="1.0" encoding="utf-8"?>
<!-- Generator: Adobe Illustrator 16.0.0, SVG Export Plug-In . SVG Version: 6.00 Build 0)  -->
<!DOCTYPE svg PUBLIC "-//W3C//DTD SVG 1.1//EN" "http://www.w3.org/Graphics/SVG/1.1/DTD/svg11.dtd">
<svg version="1.1" id="레이어_1" xmlns="http://www.w3.org/2000/svg" xmlns:xlink="http://www.w3.org/1999/xlink" x="0px"
	 y="0px" width="173.783px" height="132.391px" viewBox="0 0 173.783 132.391" enable-background="new 0 0 173.783 132.391"
	 xml:space="preserve">
<path d="M86.892,21.543c-11.36,0-20.569,9.209-20.569,20.568c0,11.36,9.209,20.57,20.569,20.57c11.361,0,20.57-9.21,20.57-20.57
	C107.462,30.752,98.253,21.543,86.892,21.543z M94.521,47.366c-0.035,0.081-0.072,0.163-0.11,0.242s-0.079,0.159-0.121,0.236
	c-0.933,1.71-2.746,2.872-4.831,2.87L80.5,50.708c-2.084,0-3.897-1.164-4.825-2.877c-0.042-0.077-0.083-0.155-0.121-0.235
	c-0.038-0.08-0.075-0.161-0.11-0.244c-0.233-0.553-0.378-1.151-0.417-1.778h-0.013l0.007-10.091
	c0.001-1.091,0.887-1.975,1.977-1.974c1.091,0,1.974,0.886,1.974,1.977l-0.004,4.463c0.04-0.003,0.079-0.006,0.119-0.006
	c0.984,0.002,1.781,0.801,1.78,1.785c0,0.604-0.301,1.135-0.76,1.459c-0.046,0.031-0.094,0.063-0.144,0.09
	c-0.019,0.013-0.038,0.027-0.057,0.041c-0.014,0.01-0.028,0.021-0.04,0.029c-0.024,0.018-0.047,0.036-0.07,0.055
	c-0.01,0.011-0.022,0.019-0.034,0.028c-0.03,0.026-0.062,0.054-0.091,0.082c-0.014,0.013-0.027,0.026-0.04,0.04
	c-0.018,0.018-0.035,0.033-0.052,0.053c-0.014,0.016-0.026,0.029-0.039,0.043c-0.016,0.018-0.031,0.035-0.047,0.054
	c-0.013,0.016-0.025,0.028-0.037,0.045c-0.018,0.021-0.035,0.043-0.052,0.065c-0.015,0.021-0.029,0.041-0.044,0.062
	c-0.017,0.022-0.033,0.049-0.048,0.072c-0.012,0.016-0.021,0.032-0.03,0.049c-0.014,0.021-0.025,0.042-0.038,0.063
	c-0.01,0.019-0.019,0.033-0.028,0.051c-0.013,0.023-0.024,0.049-0.037,0.073c-0.007,0.013-0.014,0.026-0.021,0.041
	c-0.018,0.038-0.033,0.075-0.049,0.112c-0.007,0.016-0.012,0.028-0.017,0.045c-0.011,0.024-0.021,0.053-0.03,0.08
	c-0.006,0.016-0.011,0.032-0.016,0.049c-0.01,0.027-0.019,0.057-0.025,0.086c-0.004,0.014-0.009,0.027-0.011,0.041
	c-0.012,0.042-0.021,0.085-0.029,0.127c-0.003,0.011-0.004,0.02-0.006,0.029c-0.005,0.024-0.008,0.051-0.013,0.075v0.71
	c0.171,1.131,1.147,1.995,2.323,1.996l1.868,0.002l3.266,0.004l2.255,0.001c1.179,0,2.154-0.864,2.328-1.993
	c0.017-0.117,0.026-0.237,0.026-0.358c0-0.046-0.004-0.093-0.004-0.14c-0.002-0.013-0.002-0.027-0.004-0.041
	c-0.002-0.032-0.006-0.064-0.01-0.097c-0.002-0.017-0.003-0.03-0.005-0.047c-0.005-0.033-0.012-0.067-0.019-0.104
	c-0.002-0.011-0.002-0.021-0.004-0.029c-0.01-0.043-0.019-0.086-0.028-0.128c-0.005-0.015-0.009-0.026-0.013-0.042
	c-0.008-0.026-0.016-0.058-0.024-0.084c-0.005-0.018-0.011-0.034-0.017-0.049c-0.01-0.027-0.021-0.055-0.029-0.08
	c-0.005-0.016-0.01-0.03-0.016-0.046c-0.017-0.038-0.032-0.075-0.051-0.112c-0.006-0.014-0.014-0.026-0.021-0.042
	c-0.013-0.023-0.024-0.05-0.038-0.073c-0.004-0.01-0.01-0.019-0.016-0.026c-0.004-0.006-0.008-0.017-0.012-0.021
	c-0.014-0.021-0.023-0.043-0.037-0.063c-0.01-0.017-0.02-0.031-0.029-0.047c-0.018-0.025-0.032-0.05-0.049-0.074
	c-0.016-0.021-0.029-0.039-0.045-0.062c-0.018-0.021-0.033-0.045-0.051-0.063c-0.013-0.016-0.025-0.031-0.037-0.046
	c-0.017-0.02-0.031-0.036-0.048-0.055c-0.012-0.015-0.024-0.027-0.039-0.043c-0.017-0.018-0.032-0.034-0.052-0.053
	c-0.014-0.014-0.025-0.026-0.039-0.04c-0.029-0.027-0.061-0.056-0.091-0.082c-0.013-0.011-0.024-0.021-0.036-0.027
	c-0.021-0.021-0.045-0.037-0.068-0.057c-0.013-0.009-0.027-0.019-0.039-0.029c-0.022-0.017-0.047-0.031-0.068-0.048
	c-0.377-0.256-0.828-0.403-1.316-0.403H88.09c0-0.002,0-0.002,0-0.002c-0.007,0-0.015,0.002-0.021,0.002
	c-0.866-0.002-1.568-0.705-1.567-1.572c0.001-0.861,0.698-1.563,1.562-1.565v-0.001l1.398,0.001c0.21,0,0.415,0.014,0.617,0.036
	c0,0,0,0,0-0.002c0.004,0.002,0.009,0.003,0.013,0.003c0.159,0.019,0.317,0.042,0.474,0.076c0.013,0.001,0.024,0.005,0.037,0.007
	c0.078,0.017,0.152,0.033,0.228,0.055c0.006,0.001,0.012,0.002,0.019,0.003c0.065,0.02,0.133,0.037,0.199,0.058
	c0.018,0.005,0.034,0.01,0.051,0.016c0.07,0.021,0.139,0.044,0.207,0.068c0.008,0.002,0.016,0.007,0.022,0.009
	s0.013,0.004,0.019,0.006c0.055,0.021,0.109,0.041,0.163,0.064c0.022,0.008,0.043,0.018,0.063,0.026
	c0.064,0.024,0.125,0.053,0.187,0.081c0.021,0.01,0.041,0.02,0.062,0.027c0.046,0.021,0.089,0.044,0.134,0.067
	c0.024,0.012,0.049,0.022,0.071,0.035c0.008,0.004,0.015,0.009,0.021,0.011c0.023,0.015,0.051,0.028,0.072,0.043
	c0.038,0.021,0.076,0.04,0.113,0.062c0.021,0.013,0.039,0.024,0.06,0.037c0.081,0.049,0.161,0.101,0.239,0.152
	c0.023,0.017,0.05,0.033,0.074,0.051c0.035,0.025,0.07,0.051,0.105,0.077c0.025,0.019,0.055,0.038,0.079,0.06
	c0.034,0.025,0.067,0.054,0.103,0.079c0.024,0.021,0.053,0.042,0.078,0.063c0.031,0.027,0.064,0.055,0.096,0.082
	c0.025,0.021,0.053,0.047,0.076,0.067c0.032,0.028,0.063,0.058,0.094,0.088c0.025,0.021,0.051,0.048,0.076,0.07
	c0.027,0.03,0.059,0.06,0.086,0.088c0.025,0.026,0.051,0.054,0.076,0.079c0.026,0.029,0.055,0.061,0.08,0.089
	c0.03,0.035,0.061,0.068,0.09,0.104c0.041,0.047,0.08,0.098,0.121,0.146c0.023,0.032,0.049,0.063,0.074,0.097
	c0.021,0.03,0.044,0.063,0.066,0.092c0.023,0.031,0.046,0.063,0.068,0.096c0.021,0.031,0.041,0.064,0.063,0.096
	c0.021,0.031,0.043,0.064,0.063,0.099c0.02,0.034,0.041,0.063,0.06,0.098c0.021,0.034,0.041,0.068,0.06,0.103
	c0.021,0.032,0.038,0.065,0.057,0.1c0.02,0.035,0.039,0.07,0.058,0.106c0.019,0.033,0.035,0.064,0.052,0.101
	c0.002,0.005,0.006,0.013,0.01,0.021c0.024,0.051,0.051,0.104,0.072,0.155c0.01,0.02,0.018,0.039,0.025,0.059
	c0.023,0.053,0.046,0.105,0.068,0.161c0.004,0.013,0.01,0.026,0.016,0.043c0.025,0.063,0.048,0.127,0.07,0.189
	c0.008,0.021,0.015,0.042,0.021,0.063c0.022,0.065,0.043,0.131,0.062,0.195c0.006,0.018,0.01,0.033,0.016,0.048
	c0.018,0.062,0.031,0.121,0.047,0.181c0.003,0.016,0.007,0.031,0.012,0.045c0.016,0.07,0.03,0.14,0.045,0.211
	c0.002,0.017,0.006,0.035,0.01,0.054c0.014,0.072,0.025,0.146,0.035,0.216c0.002,0.013,0.004,0.021,0.004,0.03
	c0.011,0.068,0.019,0.137,0.024,0.206c0.002,0.016,0.004,0.029,0.005,0.045c0.008,0.074,0.012,0.148,0.016,0.225
	c0,0.017,0.002,0.031,0.002,0.049c0.005,0.077,0.006,0.155,0.006,0.233C94.952,45.987,94.798,46.708,94.521,47.366z M98.79,45.582
	c-0.078,0.071-0.162,0.137-0.253,0.193c-0.284,0.182-0.622,0.285-0.981,0.285c-0.578-0.001-1.094-0.268-1.429-0.688
	c-0.252-0.313-0.403-0.713-0.401-1.146c0-0.282,0.063-0.548,0.176-0.784c0.089-0.186,0.207-0.354,0.349-0.498
	c0.007-0.006,0.013-0.012,0.019-0.019c0.401-0.421,0.648-0.991,0.648-1.618c0.001-1.301-1.051-2.354-2.352-2.354l-2.254-0.001
	l-4.414-0.006c-1.3-0.001-2.354,1.054-2.354,2.353c-0.001,0.633,0.249,1.205,0.652,1.628c0.428,0.448,1.03,0.726,1.699,0.728h0.584
	c0.002,0,0.002,0.001,0.002,0.001c0.006,0,0.014-0.001,0.02-0.001c0.867,0.001,1.568,0.703,1.568,1.57
	c-0.002,0.863-0.699,1.563-1.562,1.566l0,0h-1.4c-0.934-0.001-1.813-0.235-2.582-0.646c-1.018-0.545-1.844-1.399-2.351-2.439
	c-0.355-0.727-0.555-1.544-0.554-2.407c0.002-3.033,2.462-5.489,5.495-5.488l8.237,0.007c3.032,0.003,5.488,2.462,5.486,5.495
	C100.837,43.038,100.038,44.577,98.79,45.582z"/>
<g>
	<polyline fill="none" stroke="#000000" stroke-width="3" stroke-miterlimit="10" points="32.773,96.088 32.773,111.928 
		44.653,111.928 129.132,111.928 141.011,111.928 141.011,96.088 	"/>
	<path fill="none" stroke="#000000" stroke-width="3" stroke-miterlimit="10" d="M32.773,96.088"/>
	<path fill="none" stroke="#000000" stroke-width="3" stroke-miterlimit="10" d="M141.011,96.088"/>
	<polyline fill="none" stroke="#000000" stroke-width="3" stroke-miterlimit="10" points="141.011,65.729 141.011,47.69 
		86.892,2.295 32.773,47.69 32.773,65.729 	"/>
	<path fill="none" stroke="#000000" stroke-width="3" stroke-miterlimit="10" d="M141.011,65.729"/>
	<path fill="none" stroke="#000000" stroke-width="3" stroke-miterlimit="10" d="M32.773,65.729"/>
</g>
<g>
	<path d="M8.624,88.828H4.95V76.814c0-0.455-0.212-0.683-0.638-0.683s-0.638,0.219-0.638,0.657v12.039H0V73.863h3.674v0.502
		c0.491-0.402,1.249-0.604,2.274-0.604c0.664,0,1.275,0.181,1.835,0.541c0.56,0.361,0.84,0.891,0.84,1.586L8.624,88.828
		L8.624,88.828z"/>
	<path d="M22.772,82.486h-4.924v3.494c0,0.506,0.21,0.76,0.631,0.76c0.413,0,0.619-0.254,0.619-0.76v-3.018h3.674v3.043
		c0,2.02-1.439,3.029-4.318,3.029c-2.853,0-4.279-1.054-4.279-3.158v-8.959c0-2.105,1.426-3.158,4.279-3.158
		c2.879,0,4.318,1.01,4.318,3.029V82.486z M19.099,80.244v-3.431c0-0.488-0.206-0.733-0.619-0.733c-0.421,0-0.631,0.245-0.631,0.733
		v3.431H19.099z"/>
	<path d="M43.612,73.863l-2.565,14.966h-4.035l-1.147-6.123l-1.044,6.123h-4.228l-2.565-14.966h3.544l1.264,8.134l1.135-8.134h3.699
		l1.135,8.134l1.263-8.134H43.612L43.612,73.863z"/>
	<path d="M65.593,88.828h-2.32c-1.658,0-2.65-0.248-2.977-0.748c-0.328-0.498-0.49-1.455-0.49-2.873V76.08h-1.637v-2.218h1.637
		v-3.017h3.674v3.017h1.984v2.218H63.48v9.1c0,0.439,0.131,0.734,0.393,0.885c0.262,0.151,0.836,0.226,1.721,0.226v2.538H65.593z"/>
	<path d="M70.964,85.877v-8.959c0-2.105,1.457-3.158,4.37-3.158c1.126,0,2.116,0.245,2.971,0.734s1.283,1.256,1.283,2.295v9.217
		c0,2.02-1.418,3.029-4.254,3.029C72.421,89.035,70.964,87.982,70.964,85.877z M75.914,85.98v-9.166
		c0-0.488-0.211-0.733-0.632-0.733c-0.43,0-0.645,0.245-0.645,0.733v9.166c0,0.506,0.215,0.76,0.645,0.76
		C75.703,86.74,75.914,86.486,75.914,85.98z"/>
	<path d="M93.685,88.828h-3.674V76.814c0-0.455-0.213-0.683-0.639-0.683s-0.639,0.219-0.639,0.657v12.039H85.06V73.863h3.673v0.502
		c0.492-0.402,1.25-0.604,2.273-0.604c0.664,0,1.275,0.181,1.836,0.541c0.561,0.361,0.84,0.891,0.84,1.586v12.941H93.685z"/>
	<path d="M99.869,92v-2.166h2.983c0.871,0,1.308-0.451,1.308-1.354c-0.484,0.369-1.242,0.556-2.275,0.556
		c-0.725,0-1.352-0.191-1.881-0.574c-0.528-0.383-0.795-0.883-0.795-1.502v-10.75c0-1.633,0.979-2.449,2.935-2.449
		c0.518,0,1.196,0.219,2.043,0.658l0.479-0.556h3.17v14.761c0,0.971-0.193,1.774-0.576,2.416C106.876,91.68,105.683,92,103.685,92
		H99.869z M104.16,86.16v-9.396c0-0.455-0.211-0.684-0.634-0.684c-0.43,0-0.645,0.229-0.645,0.684v9.371
		c0,0.455,0.215,0.684,0.645,0.684C103.949,86.818,104.16,86.598,104.16,86.16z"/>
	<path d="M122.813,82.809h3.674v3.172c0,0.506,0.207,0.761,0.619,0.761s0.619-0.484,0.619-1.457c0-1.264-0.254-2.079-0.762-2.449
		c-1.916-1.005-3.072-1.707-3.467-2.107c-0.395-0.397-0.594-0.998-0.594-1.798v-2.011c0-2.105,1.428-3.158,4.281-3.158
		c2.774,0,4.162,1.01,4.162,3.029v2.95h-3.582l0.075-1.79c0-1.246-0.228-1.869-0.685-1.869c-0.454,0-0.682,0.391-0.682,1.173
		c0,0.808,0.101,1.418,0.303,1.831c0.201,0.412,1.324,1.121,3.371,2.127c0.851,0.608,1.275,1.418,1.275,2.423v2.243
		c0,2.104-1.451,3.158-4.352,3.158c-2.84,0-4.26-1.011-4.26-3.029v-3.198H122.813z"/>
	<path d="M145.549,88.828h-3.674V76.764c0-0.455-0.207-0.684-0.619-0.684c-0.42,0-0.631,0.219-0.631,0.656v12.092h-3.674V70.344
		h3.674v3.971c0.438-0.369,1.194-0.555,2.274-0.555c0.722,0,1.343,0.188,1.865,0.567c0.521,0.378,0.783,0.881,0.783,1.508
		L145.549,88.828L145.549,88.828z"/>
	<path d="M151.062,85.877v-8.959c0-2.105,1.457-3.158,4.371-3.158c1.125,0,2.114,0.245,2.971,0.734
		c0.854,0.489,1.283,1.256,1.283,2.295v9.217c0,2.02-1.418,3.029-4.254,3.029C152.519,89.035,151.062,87.982,151.062,85.877z
		 M156.013,85.98v-9.166c0-0.488-0.212-0.733-0.634-0.733c-0.43,0-0.646,0.245-0.646,0.733v9.166c0,0.506,0.216,0.76,0.646,0.76
		C155.801,86.74,156.013,86.486,156.013,85.98z"/>
	<path d="M168.832,88.48V92h-3.674V73.863h2.78l0.312,0.605c0.604-0.473,1.317-0.709,2.146-0.709c0.836,0,1.607,0.211,2.32,0.632
		c0.711,0.421,1.066,1.026,1.066,1.817v10.75c0,0.629-0.26,1.131-0.775,1.508c-0.518,0.379-1.146,0.568-1.889,0.568
		C170.095,89.035,169.332,88.85,168.832,88.48z M170.108,86.031v-9.268c0-0.455-0.211-0.684-0.633-0.684
		c-0.43,0-0.645,0.229-0.645,0.684v9.293c0,0.439,0.215,0.658,0.645,0.658C169.897,86.715,170.108,86.486,170.108,86.031z"/>
</g>
<g>
	<g>
		<path d="M33.721,132.391v-7.576h-2.83v-1.014H37.7v1.014h-2.842v7.576H33.721z"/>
		<path d="M44.442,132.391l-2.279-8.59h1.166l1.307,5.631c0.141,0.59,0.262,1.176,0.363,1.758c0.219-0.918,0.348-1.446,0.387-1.588
			l1.635-5.801h1.371l1.23,4.348c0.309,1.078,0.531,2.093,0.668,3.041c0.109-0.543,0.252-1.166,0.428-1.869l1.348-5.52h1.143
			l-2.355,8.59h-1.096l-1.811-6.545c-0.152-0.547-0.242-0.883-0.27-1.008c-0.09,0.395-0.174,0.729-0.252,1.008l-1.822,6.545H44.442z
			"/>
		<path d="M54.403,128.207c0-1.427,0.383-2.542,1.148-3.35c0.765-0.807,1.754-1.21,2.965-1.21c0.793,0,1.508,0.189,2.145,0.568
			c0.637,0.379,1.122,0.907,1.456,1.585s0.501,1.446,0.501,2.306c0,0.871-0.176,1.65-0.527,2.338
			c-0.351,0.688-0.85,1.208-1.494,1.563c-0.644,0.354-1.34,0.53-2.086,0.53c-0.809,0-1.531-0.195-2.168-0.586
			c-0.637-0.392-1.119-0.925-1.447-1.601S54.403,128.961,54.403,128.207z M55.575,128.225c0,1.035,0.278,1.852,0.835,2.446
			c0.557,0.595,1.255,0.894,2.095,0.894c0.855,0,1.56-0.301,2.112-0.901c0.552-0.602,0.829-1.455,0.829-2.562
			c0-0.699-0.118-1.31-0.354-1.831c-0.236-0.521-0.582-0.926-1.037-1.213c-0.455-0.287-0.966-0.431-1.532-0.431
			c-0.805,0-1.497,0.275-2.077,0.829C55.866,126.009,55.575,126.932,55.575,128.225z"/>
		<path d="M64.58,132.391v-8.59h3.809c0.766,0,1.348,0.077,1.746,0.231c0.398,0.153,0.717,0.427,0.955,0.816
			c0.238,0.39,0.357,0.822,0.357,1.295c0,0.609-0.197,1.123-0.592,1.541s-1.004,0.685-1.828,0.797
			c0.301,0.146,0.529,0.287,0.686,0.429c0.332,0.305,0.646,0.686,0.943,1.143l1.494,2.338h-1.43l-1.137-1.787
			c-0.332-0.516-0.605-0.91-0.82-1.184c-0.215-0.274-0.407-0.465-0.577-0.574s-0.343-0.186-0.519-0.229
			c-0.129-0.027-0.34-0.041-0.633-0.041h-1.318v3.813L64.58,132.391L64.58,132.391z M65.717,127.592h2.443
			c0.52,0,0.926-0.054,1.219-0.161c0.293-0.106,0.516-0.279,0.668-0.516c0.152-0.237,0.229-0.493,0.229-0.771
			c0-0.406-0.147-0.74-0.442-1.002s-0.761-0.393-1.397-0.393h-2.719L65.717,127.592L65.717,127.592z"/>
		<path d="M73.662,132.391v-8.59h1.137v7.576h4.23v1.014H73.662L73.662,132.391z"/>
		<path d="M80.862,132.391v-8.59h2.959c0.668,0,1.178,0.041,1.529,0.123c0.492,0.113,0.912,0.318,1.26,0.615
			c0.453,0.383,0.792,0.872,1.017,1.468s0.337,1.276,0.337,2.042c0,0.652-0.076,1.229-0.229,1.734
			c-0.153,0.504-0.348,0.921-0.586,1.251c-0.238,0.329-0.499,0.59-0.782,0.778c-0.283,0.189-0.625,0.333-1.025,0.432
			c-0.4,0.098-0.86,0.146-1.38,0.146L80.862,132.391L80.862,132.391z M81.999,131.377h1.834c0.566,0,1.011-0.053,1.333-0.158
			s0.579-0.254,0.771-0.445c0.27-0.27,0.479-0.632,0.63-1.087s0.226-1.007,0.226-1.655c0-0.897-0.147-1.589-0.442-2.07
			c-0.295-0.482-0.653-0.807-1.075-0.971c-0.305-0.116-0.795-0.176-1.471-0.176H82L81.999,131.377L81.999,131.377z"/>
		<path d="M97.842,129.021v-1.008l3.64-0.006v3.188c-0.56,0.445-1.135,0.78-1.729,1.006c-0.594,0.225-1.203,0.337-1.828,0.337
			c-0.844,0-1.61-0.182-2.3-0.542c-0.689-0.361-1.21-0.885-1.563-1.567c-0.352-0.683-0.526-1.447-0.526-2.291
			c0-0.836,0.175-1.616,0.524-2.341c0.349-0.726,0.853-1.263,1.508-1.614c0.656-0.351,1.412-0.527,2.269-0.527
			c0.621,0,1.183,0.102,1.685,0.303s0.896,0.48,1.182,0.841s0.502,0.828,0.65,1.406l-1.025,0.28c-0.129-0.438-0.289-0.78-0.48-1.03
			s-0.465-0.45-0.82-0.602c-0.354-0.15-0.75-0.226-1.184-0.226c-0.52,0-0.969,0.079-1.348,0.236
			c-0.379,0.158-0.686,0.366-0.917,0.624c-0.231,0.259-0.413,0.541-0.542,0.851c-0.219,0.531-0.328,1.106-0.328,1.729
			c0,0.767,0.132,1.406,0.396,1.922c0.264,0.517,0.646,0.898,1.15,1.148s1.039,0.375,1.605,0.375c0.492,0,0.973-0.095,1.44-0.284
			c0.468-0.188,0.824-0.392,1.066-0.605v-1.601L97.842,129.021L97.842,129.021z"/>
		<path d="M103.59,132.391v-8.59h1.138v7.576h4.229v1.014H103.59L103.59,132.391z"/>
		<path d="M110.444,128.207c0-1.427,0.383-2.542,1.147-3.35c0.765-0.807,1.755-1.21,2.966-1.21c0.793,0,1.508,0.189,2.145,0.568
			s1.122,0.907,1.456,1.585s0.501,1.446,0.501,2.306c0,0.871-0.176,1.65-0.527,2.338c-0.352,0.688-0.85,1.208-1.494,1.563
			c-0.644,0.354-1.34,0.53-2.086,0.53c-0.809,0-1.531-0.195-2.168-0.586c-0.637-0.392-1.119-0.925-1.447-1.601
			S110.444,128.961,110.444,128.207z M111.616,128.225c0,1.035,0.277,1.852,0.835,2.446c0.557,0.595,1.255,0.894,2.095,0.894
			c0.855,0,1.561-0.301,2.112-0.901c0.552-0.602,0.829-1.455,0.829-2.562c0-0.699-0.118-1.31-0.354-1.831
			c-0.235-0.521-0.582-0.926-1.036-1.213c-0.455-0.287-0.967-0.431-1.533-0.431c-0.805,0-1.496,0.275-2.076,0.829
			C111.907,126.009,111.616,126.932,111.616,128.225z"/>
		<path d="M120.558,132.391v-8.59h3.223c0.656,0,1.184,0.087,1.58,0.261c0.396,0.174,0.707,0.441,0.932,0.804
			c0.225,0.361,0.337,0.738,0.337,1.134c0,0.367-0.101,0.713-0.299,1.037c-0.199,0.323-0.5,0.586-0.901,0.784
			c0.52,0.152,0.918,0.412,1.197,0.779s0.419,0.801,0.419,1.301c0,0.402-0.085,0.776-0.255,1.122c-0.17,0.347-0.38,0.612-0.63,0.8
			c-0.25,0.188-0.563,0.329-0.94,0.426c-0.377,0.096-0.839,0.144-1.386,0.144L120.558,132.391L120.558,132.391z M121.694,127.41
			h1.856c0.505,0,0.865-0.033,1.084-0.101c0.289-0.086,0.507-0.229,0.653-0.428s0.22-0.449,0.22-0.75
			c0-0.285-0.067-0.536-0.204-0.753c-0.138-0.217-0.332-0.365-0.587-0.445c-0.254-0.08-0.688-0.12-1.307-0.12h-1.718v2.597H121.694z
			 M121.694,131.377h2.139c0.367,0,0.625-0.015,0.773-0.041c0.262-0.047,0.479-0.125,0.656-0.234
			c0.176-0.108,0.319-0.269,0.434-0.478c0.113-0.209,0.17-0.45,0.17-0.725c0-0.319-0.082-0.599-0.246-0.835
			c-0.164-0.235-0.393-0.401-0.684-0.498c-0.291-0.096-0.709-0.144-1.256-0.144h-1.986V131.377z"/>
		<path d="M128.146,132.391l3.299-8.59h1.225l3.516,8.59h-1.295l-1.002-2.602h-3.592l-0.943,2.602H128.146z M130.623,128.863h2.912
			l-0.896-2.379c-0.273-0.723-0.478-1.315-0.609-1.78c-0.109,0.551-0.264,1.098-0.463,1.641L130.623,128.863z"/>
		<path d="M137.524,132.391v-8.59h1.138v7.576h4.229v1.014H137.524L137.524,132.391z"/>
	</g>
</g>
</svg>
